<svg id="Capa_1" enable-background="new 0 0 511 511" height="512" viewBox="0 0 511 511" width="512" xmlns="http://www.w3.org/2000/svg"><g id="Outline_64_"><g><g><path d="m71.5 97.5v384h368c35.346 0 64-28.654 64-64v-320z" fill="#feefcd"/><path d="m375.5 417.5h-368c0 35.346 28.654 64 64 64h368c-35.346 0-64-28.654-64-64z" fill="#fde09b"/></g><g><circle cx="195.5" cy="69.5" fill="#7d55cc" r="40"/><path d="m215.5 89.5c-22.091 0-40-17.909-40-40 0-5.868 1.274-11.435 3.544-16.456-13.88 6.276-23.544 20.233-23.544 36.456 0 22.091 17.909 40 40 40 16.223 0 30.18-9.664 36.456-23.544-5.021 2.27-10.588 3.544-16.456 3.544z" fill="#5c2bbf"/></g></g><g><path d="m503.5 90h-56.087c-4.142 0-7.5 3.358-7.5 7.5s3.358 7.5 7.5 7.5h48.587v312.5c0 31.154-25.346 56.5-56.5 56.5s-56.5-25.346-56.5-56.5c0-4.142-3.358-7.5-7.5-7.5h-180.087c-4.142 0-7.5 3.358-7.5 7.5s3.358 7.5 7.5 7.5h172.978c2.08 19.876 12.338 37.353 27.338 49h-324.229c-28.612 0-52.325-21.378-56.004-49h144.004c4.142 0 7.5-3.358 7.5-7.5s-3.358-7.5-7.5-7.5h-80.5v-305h84.988c8.392 7.458 19.429 12 31.512 12 10.395 0 20.013-3.365 27.843-9.051l42.854 42.854c1.464 1.464 3.384 2.197 5.303 2.197s3.839-.732 5.303-2.197c2.929-2.929 2.929-7.678 0-10.606l-35.197-35.197h170.589c4.142 0 7.5-3.358 7.5-7.5s-3.358-7.5-7.5-7.5h-173.852c2.983-6.21 4.657-13.163 4.657-20.5 0-26.191-21.309-47.5-47.5-47.5s-47.5 21.309-47.5 47.5c0 7.337 1.674 14.29 4.657 20.5h-81.157c-4.142 0-7.5 3.358-7.5 7.5v312.5h-56.5c-4.142 0-7.5 3.358-7.5 7.5 0 39.425 32.075 71.5 71.5 71.5h368c39.425 0 71.5-32.075 71.5-71.5v-320c0-4.142-3.358-7.5-7.5-7.5zm-308-53c17.92 0 32.5 14.58 32.5 32.5 0 8.194-3.055 15.683-8.076 21.406-.093.051-.18.11-.271.165-.106.063-.213.123-.316.192-.115.077-.223.162-.334.245-.085.064-.173.123-.256.191-.383.314-.734.665-1.048 1.048-.07.086-.132.176-.198.264-.081.107-.164.212-.239.324-.072.107-.134.219-.2.329-.052.087-.109.17-.157.259-5.722 5.023-13.211 8.077-21.405 8.077-17.92 0-32.5-14.58-32.5-32.5s14.58-32.5 32.5-32.5z"/><path d="m199 225.5c0-4.142-3.358-7.5-7.5-7.5h-48c-4.142 0-7.5 3.358-7.5 7.5s3.358 7.5 7.5 7.5h16.525c-.011.166-.025.331-.025.5v56c0 4.142 3.358 7.5 7.5 7.5s7.5-3.358 7.5-7.5v-56c0-.169-.014-.334-.025-.5h16.525c4.142 0 7.5-3.358 7.5-7.5z"/><path d="m231.5 297c17.369 0 31.5-17.72 31.5-39.5s-14.131-39.5-31.5-39.5-31.5 17.72-31.5 39.5 14.131 39.5 31.5 39.5zm0-64c8.944 0 16.5 11.22 16.5 24.5s-7.556 24.5-16.5 24.5-16.5-11.22-16.5-24.5 7.556-24.5 16.5-24.5z"/><path d="m376 257.5c0 21.78 14.131 39.5 31.5 39.5s31.5-17.72 31.5-39.5-14.131-39.5-31.5-39.5-31.5 17.72-31.5 39.5zm48 0c0 13.28-7.556 24.5-16.5 24.5s-16.5-11.22-16.5-24.5 7.556-24.5 16.5-24.5 16.5 11.22 16.5 24.5z"/><path d="m359 257.5c0-37.917-52.051-47.029-54.267-47.398-2.174-.362-4.399.25-6.081 1.675s-2.652 3.518-2.652 5.723v72c0 4.142 3.358 7.5 7.5 7.5 19.196 0 55.5-8.255 55.5-39.5zm-48-30.438c12.241 3.678 33 12.553 33 30.438 0 17.56-21.292 22.537-33 23.945z"/><path d="m383 329.5c0-4.142-3.358-7.5-7.5-7.5h-160c-4.142 0-7.5 3.358-7.5 7.5s3.358 7.5 7.5 7.5h160c4.142 0 7.5-3.358 7.5-7.5z"/><path d="m231.5 362c-4.142 0-7.5 3.358-7.5 7.5s3.358 7.5 7.5 7.5h104c4.142 0 7.5-3.358 7.5-7.5s-3.358-7.5-7.5-7.5z"/></g></g></svg>